<?xml version="1.0" encoding="UTF-8" standalone="no"?>
<!-- Created with Inkscape (http://www.inkscape.org/) -->

<svg
   width="297mm"
   height="210mm"
   viewBox="0 0 297 210"
   version="1.1"
   id="svg5"
   xml:space="preserve"
   inkscape:version="1.2.1 (9c6d41e410, 2022-07-14)"
   sodipodi:docname="Pizzanet.svg"
   xmlns:inkscape="http://www.inkscape.org/namespaces/inkscape"
   xmlns:sodipodi="http://sodipodi.sourceforge.net/DTD/sodipodi-0.dtd"
   xmlns="http://www.w3.org/2000/svg"
   xmlns:svg="http://www.w3.org/2000/svg"><sodipodi:namedview
     id="namedview7"
     pagecolor="#ffffff"
     bordercolor="#000000"
     borderopacity="0.25"
     inkscape:showpageshadow="2"
     inkscape:pageopacity="0.0"
     inkscape:pagecheckerboard="0"
     inkscape:deskcolor="#d1d1d1"
     inkscape:document-units="mm"
     showgrid="false"
     inkscape:zoom="0.16535615"
     inkscape:cx="-45.356644"
     inkscape:cy="1481.6504"
     inkscape:window-width="1366"
     inkscape:window-height="705"
     inkscape:window-x="-8"
     inkscape:window-y="-8"
     inkscape:window-maximized="1"
     inkscape:current-layer="layer1"
     showguides="true" /><defs
     id="defs2"><clipPath
       clipPathUnits="userSpaceOnUse"
       id="clipPath3921"><path
         style="fill:#000000;stroke-width:0.212917"
         d="m 131.60231,166.94917 c -5.87361,-0.60567 -10.47217,-4.25376 -11.82753,-9.38288 -0.38174,-1.44462 -0.33406,-4.31052 0.0974,-5.85738 1.47614,-5.2916 6.87585,-9.19152 12.72628,-9.19152 6.10799,0 11.69549,4.19388 12.94974,9.71985 1.65383,7.28644 -3.94844,14.10939 -12.06422,14.69288 -0.66967,0.0481 -1.51645,0.0567 -1.88172,0.0191 z M 102.04813,142.2404 c -4.088411,-1.3208 -6.473302,-4.87594 -5.749103,-8.57015 0.443471,-2.26221 1.045332,-3.05404 5.270923,-6.9347 5.38393,-4.94443 8.52819,-7.09007 13.65026,-9.3149 5.86468,-2.54739 10.53284,-3.55375 17.26761,-3.72255 6.40428,-0.16052 11.50194,0.6529 17.15693,2.73768 5.95856,2.1967 11.71586,5.88423 16.50134,10.56908 2.92417,2.86267 3.63457,4.17846 3.64084,6.74347 0.0134,5.45877 -6.22657,9.08372 -11.6118,6.74563 -0.98787,-0.4289 -2.17119,-1.31052 -4.54555,-3.3866 -3.29746,-2.88322 -5.58846,-4.45925 -8.30174,-5.71093 -5.79835,-2.67488 -13.29156,-3.15018 -19.85132,-1.25919 -2.24428,0.64696 -5.95415,2.42078 -7.79269,3.72596 -0.74619,0.52972 -2.97654,2.42108 -4.95632,4.20302 -4.2983,3.86877 -5.07134,4.29005 -8.02283,4.37215 -1.06751,0.0297 -2.21699,-0.056 -2.65655,-0.19797 z M 80.492919,122.97452 c -3.39267,-1.32253 -5.302282,-4.5433 -4.595582,-7.75094 0.429022,-1.94728 1.12822,-2.8569 4.763021,-6.19644 10.032521,-9.217524 19.716822,-14.706892 31.951822,-18.111294 13.33456,-3.710358 28.10398,-3.670239 41.62333,0.113062 11.40913,3.192769 22.60949,9.536592 30.98502,17.549722 2.70627,2.58918 3.20811,3.31047 3.63576,5.22567 0.50581,2.26526 -0.35403,4.63014 -2.29365,6.30837 -1.60178,1.38593 -2.77638,1.80861 -5.03923,1.81341 -2.85415,0.006 -3.71802,-0.44621 -7.7089,-4.03582 -1.78717,-1.60746 -4.04037,-3.50827 -5.00712,-4.22403 -7.17279,-5.31053 -15.49418,-8.88911 -24.58644,-10.5733 -6.65284,-1.23232 -14.36736,-1.29771 -21.14176,-0.1792 -9.14384,1.50974 -18.37296,5.41297 -25.675422,10.85879 -1.03242,0.76992 -3.692051,3.03857 -5.910299,5.04144 -4.614241,4.16622 -5.151602,4.47744 -7.930542,4.59317 -1.499658,0.0625 -1.97009,-0.004 -3.070008,-0.43261 z"
         id="path3923" /></clipPath></defs><g
     inkscape:label="Camada 1"
     inkscape:groupmode="layer"
     id="layer1"><g
       id="g3909"
       inkscape:export-filename="Logo.png"
       inkscape:export-xdpi="96"
       inkscape:export-ydpi="96"
       transform="matrix(5.1147453,0,0,5.1147453,-349.46023,-648.27286)"><path
         style="fill:#e63030;fill-opacity:1;stroke:#ffffff;stroke-width:0.146709"
         d="m 45.013385,207.53197 c -2.80227,-0.46535 -5.673846,-1.5987 -8.009291,-3.16112 -1.467247,-0.98159 -4.190392,-3.69467 -5.152504,-5.13347 -1.477582,-2.20965 -2.51276,-4.67978 -3.073654,-7.33427 -0.370139,-1.75172 -0.365852,-5.74498 0.008,-7.47621 0.850566,-3.93853 2.619505,-7.23258 5.366626,-9.99351 2.860231,-2.87461 6.181437,-4.64791 10.194846,-5.44338 1.916185,-0.37978 5.023621,-0.40709 6.974433,-0.0613 5.458277,0.96755 10.275159,4.20619 13.25619,8.91283 0.39416,0.62233 0.48067,0.86358 0.34649,0.96632 -0.0984,0.0753 -3.892391,2.20282 -8.431196,4.72783 -4.538805,2.52501 -8.249829,4.6319 -8.246718,4.68198 0.0033,0.0501 3.799991,2.19686 8.437518,4.77062 l 8.431876,4.67958 -0.31028,0.52859 c -2.617601,4.45943 -7.276925,7.84893 -12.45692,9.062 -1.959978,0.45899 -5.437609,0.58865 -7.335445,0.27349 z m 8.735249,-28.37487 c 1.098456,-0.49896 1.789877,-1.6952 1.637304,-2.83272 -0.169053,-1.26038 -1.388521,-2.31975 -2.670335,-2.31975 -1.176728,0 -2.367994,0.94128 -2.648205,2.09248 -0.286971,1.17897 0.421185,2.51754 1.619981,3.06214 0.74534,0.3386 1.312394,0.33801 2.061255,-0.002 z"
         id="path686"
         sodipodi:nodetypes="sssscsssssscscsssscsssscc" /><text
         xml:space="preserve"
         style="font-size:24.8551px;fill:#6b9c2f;fill-opacity:1;stroke-width:2.07126"
         x="66.237106"
         y="197.11349"
         id="text827"><tspan
           sodipodi:role="line"
           id="tspan825"
           style="font-style:normal;font-variant:normal;font-weight:normal;font-stretch:normal;font-family:'Rubik Glitch';-inkscape-font-specification:'Rubik Glitch';fill:#6b9c2f;fill-opacity:1;stroke-width:2.07126"
           x="66.237106"
           y="197.11349">Pizzanet</tspan></text><g
         id="g869"
         transform="matrix(0.37257965,0.07221304,-0.07221304,0.37257965,-3.000201,142.89036)"><g
           id="g879"
           transform="rotate(-12.084921,174.25649,95.719416)"><g
             transform="matrix(0.02560798,0,0,-0.02560798,70.850843,427.84048)"
             id="g855"><path
               id="path853"
               style="fill:#6b9c2f;fill-opacity:1;fill-rule:nonzero;stroke:none"
               d="m 3238.58,16024.7 c 31.04,103.2 87.73,198.7 163.56,275.3 -65.39,-98.5 -214.29,-102.4 -295.3,-188.5 -26.61,-28.3 -44.13,-63.8 -59.96,-99.2 -94.72,-212 -161.69,-466.2 -367.37,-574.1 -169.87,-89.1 -376.69,-44.1 -560.15,11.9 -126.56,38.6 -253.17,82.2 -365.08,152.8 -176.06,111 -334.51,293.9 -542.33,282.3 117.21,-139.9 259.31,-259 417.65,-349.9 131.91,-75.7 280.23,-136.3 372.51,-257.3 20.01,-26.2 37.47,-60.7 24.43,-91 -13.78,-32 -53.45,-41.9 -87.77,-47.8 -138.66,-24 -299.06,-42.2 -403.71,51.8 -96.68,87 -108.63,240.6 -203.98,329 24.53,-92.2 49.07,-184.5 73.61,-276.7 36.45,-136.9 93.05,-295.4 229.39,-334.1 120.13,-34.2 253.97,43.8 370.77,-0.4 44.79,-16.9 81.15,-50.1 120.78,-77 152.23,-103.2 364.63,-109.2 522.47,-14.7 62.38,37.3 115.68,88.2 177.18,126.9 263.53,166.2 631.06,86.5 888.95,261.2 45.57,30.9 86.95,70 111.8,119.2 23.13,45.7 30.86,97.6 33.55,148.7 13.03,247.6 -90.91,498.8 -275.06,664.8 44.07,-59.2 124.08,-184.6 137.28,-358.6 5.18,-68.2 11.44,-150.8 -30.67,-235.1 -97.65,-195.7 -393.32,-276.4 -546.14,-185.6 -16.79,9.9 -77.85,47.8 -95.53,114.8 -12.1,45.8 -1.93,96.8 28.88,151.3 78.19,138.5 114.29,247.1 160.24,400" /></g><g
             transform="matrix(0.0253472,0,0,-0.0253472,70.850843,427.84048)"
             id="g859"><path
               id="path857"
               style="fill:#6b9c2f;fill-opacity:1;fill-rule:nonzero;stroke:none"
               d="m 2604.13,16131 c -18.09,47.5 -38.61,96.7 -77.89,128.8 -39.29,32.2 -103.09,40.2 -138.6,3.9 95.92,-277.7 147.96,-570.5 153.6,-864.3 44.21,-24.9 90.02,-50.3 140.48,-55.7 188.24,-20.1 96.94,193.8 73.23,295 -39.21,167.2 -89.61,331.8 -150.82,492.3" /></g><g
             transform="matrix(0.02369927,0,0,-0.02369927,70.850843,427.84048)"
             id="g863"><path
               id="path861"
               style="fill:#88b744;fill-opacity:1;fill-rule:nonzero;stroke:none"
               d="m 3077.54,16172.1 c -91.85,-95 -239.16,-115.7 -369.11,-91.9 -129.95,23.7 -249.43,84.9 -372.17,133.8 -122.74,48.8 -256.78,86 -386.02,58.7 84.69,-44.3 162.33,-101.8 230.14,-169.2 42.09,-19.4 77.86,-50.9 116.45,-77.1 164.49,-111.6 394,-118.1 564.55,-16 67.4,40.4 124.99,95.3 191.45,137.2 8,5.1 16.12,9.8 24.3,14.5 l 0.41,10" /></g><g
             transform="matrix(0.02532061,0,0,-0.02532061,70.850843,427.84048)"
             id="g867"><path
               id="path865"
               style="fill:#5d842b;fill-opacity:1;fill-rule:nonzero;stroke:none"
               d="m 2606.87,16148 c -18.11,47.5 -38.66,96.7 -77.97,128.9 -13.13,10.8 -29.06,18.5 -45.68,23.1 170.16,-275.7 233.06,-616.6 173.6,-935 9.1,-2.3 18.31,-4.2 27.72,-5.2 188.44,-20.1 97.05,194 73.3,295.3 -39.25,167.4 -89.7,332.2 -150.97,492.9" /></g></g></g><path
         style="fill:#e63030;fill-opacity:1;stroke:#000000;stroke-width:0.75;stroke-dasharray:none"
         d="m 45.013385,207.53197 c -2.80227,-0.46535 -5.673846,-1.5987 -8.009291,-3.16112 -1.467247,-0.98159 -4.190392,-3.69467 -5.152504,-5.13347 -1.477582,-2.20965 -2.51276,-4.67978 -3.073654,-7.33427 -0.370139,-1.75172 -0.365852,-5.74498 0.008,-7.47621 0.850566,-3.93853 2.619505,-7.23258 5.366626,-9.99351 2.860231,-2.87461 6.181437,-4.64791 10.194846,-5.44338 1.916185,-0.37978 5.023621,-0.40709 6.974433,-0.0613 5.458277,0.96755 10.275159,4.20619 13.25619,8.91283 0.39416,0.62233 0.48067,0.86358 0.34649,0.96632 -0.0984,0.0753 -3.892391,2.20282 -8.431196,4.72783 -4.538805,2.52501 -8.249829,4.6319 -8.246718,4.68198 0.0033,0.0501 3.799991,2.19686 8.437518,4.77062 l 8.431876,4.67958 -0.31028,0.52859 c -2.617601,4.45943 -7.276925,7.84893 -12.45692,9.062 -1.959978,0.45899 -5.437609,0.58865 -7.335445,0.27349 z m 8.735249,-28.37487 c 1.098456,-0.49896 1.789877,-1.6952 1.637304,-2.83272 -0.169053,-1.26038 -1.388521,-2.31975 -2.670335,-2.31975 -1.176728,0 -2.367994,0.94128 -2.648205,2.09248 -0.286971,1.17897 0.421185,2.51754 1.619981,3.06214 0.74534,0.3386 1.312394,0.33801 2.061255,-0.002 z"
         id="path2506"
         sodipodi:nodetypes="sssscsssssscscsssscsssscc" /><text
         xml:space="preserve"
         style="font-size:24.8551px;fill:#6b9c2f;fill-opacity:1;stroke-width:2.07126"
         x="66.237106"
         y="197.11349"
         id="text2510"><tspan
           sodipodi:role="line"
           id="tspan2508"
           style="font-style:normal;font-variant:normal;font-weight:normal;font-stretch:normal;font-family:'Rubik Glitch';-inkscape-font-specification:'Rubik Glitch';fill:#6b9c2f;fill-opacity:1;stroke-width:2.07126"
           x="66.237106"
           y="197.11349">Pizzanet</tspan></text><g
         id="g2530"
         transform="matrix(0.37257965,0.07221304,-0.07221304,0.37257965,-3.000201,142.89036)"><g
           id="g2528"
           transform="rotate(-12.084921,174.25649,95.719416)"><g
             transform="matrix(0.02560798,0,0,-0.02560798,70.850843,427.84048)"
             id="g2514"><path
               id="path2512"
               style="fill:#6b9c2f;fill-opacity:1;fill-rule:nonzero;stroke:none"
               d="m 3238.58,16024.7 c 31.04,103.2 87.73,198.7 163.56,275.3 -65.39,-98.5 -214.29,-102.4 -295.3,-188.5 -26.61,-28.3 -44.13,-63.8 -59.96,-99.2 -94.72,-212 -161.69,-466.2 -367.37,-574.1 -169.87,-89.1 -376.69,-44.1 -560.15,11.9 -126.56,38.6 -253.17,82.2 -365.08,152.8 -176.06,111 -334.51,293.9 -542.33,282.3 117.21,-139.9 259.31,-259 417.65,-349.9 131.91,-75.7 280.23,-136.3 372.51,-257.3 20.01,-26.2 37.47,-60.7 24.43,-91 -13.78,-32 -53.45,-41.9 -87.77,-47.8 -138.66,-24 -299.06,-42.2 -403.71,51.8 -96.68,87 -108.63,240.6 -203.98,329 24.53,-92.2 49.07,-184.5 73.61,-276.7 36.45,-136.9 93.05,-295.4 229.39,-334.1 120.13,-34.2 253.97,43.8 370.77,-0.4 44.79,-16.9 81.15,-50.1 120.78,-77 152.23,-103.2 364.63,-109.2 522.47,-14.7 62.38,37.3 115.68,88.2 177.18,126.9 263.53,166.2 631.06,86.5 888.95,261.2 45.57,30.9 86.95,70 111.8,119.2 23.13,45.7 30.86,97.6 33.55,148.7 13.03,247.6 -90.91,498.8 -275.06,664.8 44.07,-59.2 124.08,-184.6 137.28,-358.6 5.18,-68.2 11.44,-150.8 -30.67,-235.1 -97.65,-195.7 -393.32,-276.4 -546.14,-185.6 -16.79,9.9 -77.85,47.8 -95.53,114.8 -12.1,45.8 -1.93,96.8 28.88,151.3 78.19,138.5 114.29,247.1 160.24,400" /></g><g
             transform="matrix(0.0253472,0,0,-0.0253472,70.850843,427.84048)"
             id="g2518"><path
               id="path2516"
               style="fill:#6b9c2f;fill-opacity:1;fill-rule:nonzero;stroke:none"
               d="m 2604.13,16131 c -18.09,47.5 -38.61,96.7 -77.89,128.8 -39.29,32.2 -103.09,40.2 -138.6,3.9 95.92,-277.7 147.96,-570.5 153.6,-864.3 44.21,-24.9 90.02,-50.3 140.48,-55.7 188.24,-20.1 96.94,193.8 73.23,295 -39.21,167.2 -89.61,331.8 -150.82,492.3" /></g><g
             transform="matrix(0.02369927,0,0,-0.02369927,70.850843,427.84048)"
             id="g2522"><path
               id="path2520"
               style="fill:#88b744;fill-opacity:1;fill-rule:nonzero;stroke:none"
               d="m 3077.54,16172.1 c -91.85,-95 -239.16,-115.7 -369.11,-91.9 -129.95,23.7 -249.43,84.9 -372.17,133.8 -122.74,48.8 -256.78,86 -386.02,58.7 84.69,-44.3 162.33,-101.8 230.14,-169.2 42.09,-19.4 77.86,-50.9 116.45,-77.1 164.49,-111.6 394,-118.1 564.55,-16 67.4,40.4 124.99,95.3 191.45,137.2 8,5.1 16.12,9.8 24.3,14.5 l 0.41,10" /></g><g
             transform="matrix(0.02532061,0,0,-0.02532061,70.850843,427.84048)"
             id="g2526"><path
               id="path2524"
               style="fill:#5d842b;fill-opacity:1;fill-rule:nonzero;stroke:none"
               d="m 2606.87,16148 c -18.11,47.5 -38.66,96.7 -77.97,128.9 -13.13,10.8 -29.06,18.5 -45.68,23.1 170.16,-275.7 233.06,-616.6 173.6,-935 9.1,-2.3 18.31,-4.2 27.72,-5.2 188.44,-20.1 97.05,194 73.3,295.3 -39.25,167.4 -89.7,332.2 -150.97,492.9" /></g></g></g><ellipse
         style="fill:#000000;fill-opacity:1;stroke:#000000;stroke-width:0.644146;stroke-dasharray:none;stroke-opacity:0"
         id="path3344"
         cx="52.699818"
         cy="176.69731"
         rx="2.5516763"
         ry="2.4632835" /></g></g></svg>
