<svg width="1107" height="232" viewBox="0 0 1107 232" fill="none" xmlns="http://www.w3.org/2000/svg">
<path d="M728.463 80.9633L781.59 111.598C782.331 112.027 782.947 112.643 783.375 113.385C783.803 114.127 784.029 114.969 784.029 115.825C784.029 116.682 783.803 117.524 783.375 118.266C782.947 119.008 782.331 119.624 781.59 120.053L728.492 150.746C727.75 151.175 726.909 151.401 726.052 151.402C725.194 151.402 724.352 151.177 723.61 150.749C722.868 150.32 722.251 149.704 721.823 148.962C721.394 148.219 721.169 147.377 721.17 146.52L721.136 85.1927C721.136 84.3352 721.361 83.4928 721.79 82.7501C722.219 82.0074 722.835 81.3907 723.578 80.962C724.321 80.5333 725.163 80.3076 726.021 80.3079C726.878 80.3081 727.721 80.5342 728.463 80.9633V80.9633Z" stroke="#593493" stroke-miterlimit="10"/>
<path d="M726.391 69.6941C742.273 68.4318 757.183 61.5457 768.442 50.2737C779.701 39.0017 786.57 24.0832 787.814 8.20006C787.863 7.52785 787.773 6.85274 787.55 6.21689C787.326 5.58104 786.974 4.99816 786.515 4.50469C786.056 4.01121 785.5 3.61774 784.882 3.34892C784.264 3.0801 783.597 2.94173 782.923 2.94239L725.983 2.97145C725.342 2.97145 724.707 3.09778 724.115 3.34323C723.523 3.58867 722.985 3.94845 722.532 4.40193C722.078 4.85542 721.719 5.39377 721.474 5.98619C721.229 6.5786 721.103 7.21345 721.104 7.8545L721.133 64.7944C721.131 65.4691 721.269 66.137 721.537 66.756C721.805 67.3751 722.199 67.932 722.692 68.392C723.186 68.852 723.769 69.2051 724.406 69.4292C725.042 69.6532 725.718 69.7434 726.391 69.6941Z" stroke="#593493" stroke-miterlimit="10"/>
<path d="M783.051 228.613L726.095 228.642C724.8 228.642 723.559 228.128 722.643 227.213C721.728 226.298 721.213 225.057 721.212 223.763L721.183 166.806C721.183 165.512 721.697 164.271 722.611 163.355C723.526 162.439 724.767 161.924 726.062 161.923L783.018 161.894C783.659 161.893 784.294 162.018 784.887 162.263C785.48 162.508 786.018 162.867 786.472 163.32C786.925 163.774 787.285 164.312 787.53 164.904C787.776 165.497 787.902 166.132 787.901 166.773L787.93 223.73C787.931 224.371 787.805 225.005 787.56 225.598C787.315 226.19 786.956 226.729 786.503 227.182C786.05 227.636 785.512 227.995 784.919 228.241C784.327 228.486 783.692 228.613 783.051 228.613V228.613Z" stroke="#593493" stroke-miterlimit="10"/>
<path d="M703.153 69.719L646.197 69.7482C644.902 69.7482 643.66 69.2344 642.744 68.3196C641.828 67.4049 641.312 66.1639 641.31 64.8692L641.285 7.91273C641.284 7.27147 641.41 6.63635 641.655 6.0437C641.9 5.45105 642.259 4.91245 642.712 4.45863C643.165 4.00481 643.703 3.64471 644.295 3.3988C644.887 3.1529 645.522 3.02605 646.164 3.02551L703.12 2.99634C704.415 2.99634 705.657 3.51076 706.573 4.42652C707.489 5.34227 708.003 6.58432 708.003 7.87939L708.032 64.836C708.032 66.1303 707.518 67.3717 706.603 68.2873C705.689 69.2029 704.448 69.7179 703.153 69.719V69.719Z" stroke="#593493" stroke-miterlimit="10"/>
<path d="M566.803 70.0812C582.829 68.8086 597.876 61.8612 609.239 50.4879C620.601 39.1145 627.535 24.0611 628.792 8.03349C628.841 7.35527 628.75 6.67414 628.524 6.03275C628.298 5.39135 627.943 4.80342 627.479 4.3057C627.016 3.80798 626.455 3.4112 625.831 3.14007C625.208 2.86895 624.535 2.72934 623.855 2.72998L566.407 2.75905C565.76 2.7585 565.119 2.88571 564.521 3.13326C563.923 3.38082 563.38 3.74388 562.922 4.20173C562.465 4.65958 562.102 5.20321 561.855 5.80143C561.608 6.39965 561.481 7.04071 561.482 7.68794L561.512 65.1357C561.509 65.8155 561.647 66.4884 561.917 67.1124C562.187 67.7363 562.582 68.298 563.079 68.7622C563.575 69.2263 564.162 69.583 564.803 69.81C565.444 70.037 566.125 70.1293 566.803 70.0812V70.0812Z" stroke="#593493" stroke-miterlimit="10"/>
<path d="M247.48 69.9356C263.36 68.6745 278.27 61.7904 289.529 50.5208C300.788 39.2512 307.657 24.3353 308.904 8.45406C308.952 7.78199 308.862 7.10708 308.638 6.47151C308.414 5.83593 308.062 5.25325 307.603 4.75991C307.144 4.26657 306.588 3.87317 305.97 3.60414C305.353 3.33511 304.686 3.19625 304.012 3.19629L247.072 3.22546C246.431 3.226 245.796 3.35285 245.204 3.59876C244.612 3.84466 244.074 4.20476 243.621 4.65858C243.168 5.1124 242.808 5.651 242.564 6.24365C242.319 6.8363 242.193 7.47142 242.193 8.11268L242.218 65.0526C242.219 65.7261 242.359 66.3921 242.629 67.0092C242.899 67.6263 243.293 68.1813 243.786 68.6394C244.28 69.0975 244.863 69.449 245.498 69.672C246.134 69.895 246.809 69.9848 247.48 69.9356V69.9356Z" stroke="#593493" stroke-miterlimit="10"/>
<path d="M304.158 228.854L247.202 228.883C246.561 228.884 245.926 228.759 245.333 228.514C244.74 228.269 244.202 227.91 243.748 227.457C243.294 227.003 242.935 226.465 242.689 225.873C242.444 225.28 242.318 224.645 242.319 224.004L242.29 167.047C242.289 166.406 242.415 165.771 242.66 165.179C242.905 164.587 243.264 164.048 243.717 163.595C244.17 163.141 244.708 162.782 245.3 162.536C245.893 162.291 246.527 162.164 247.169 162.164L304.125 162.135C304.766 162.135 305.401 162.26 305.993 162.505C306.586 162.75 307.124 163.11 307.578 163.563C308.031 164.016 308.391 164.554 308.636 165.146C308.882 165.738 309.008 166.373 309.008 167.014L309.037 223.971C309.038 224.612 308.912 225.247 308.667 225.839C308.422 226.431 308.063 226.97 307.61 227.423C307.157 227.877 306.619 228.237 306.026 228.482C305.434 228.727 304.799 228.854 304.158 228.854Z" stroke="#593493" stroke-miterlimit="10"/>
<path d="M329.331 1.65592L382.457 32.2906C383.199 32.7199 383.814 33.3367 384.242 34.079C384.67 34.8214 384.896 35.6632 384.896 36.5201C384.896 37.3769 384.67 38.2187 384.242 38.9611C383.814 39.7034 383.199 40.3202 382.457 40.7495L329.36 71.4383C328.618 71.8675 327.776 72.0938 326.919 72.0943C326.062 72.0948 325.22 71.8696 324.478 71.4413C323.735 71.013 323.119 70.3966 322.69 69.6543C322.262 68.912 322.037 68.07 322.037 67.213L322.004 5.88954C322.003 5.03167 322.228 4.18865 322.656 3.44537C323.084 2.70209 323.701 2.08482 324.444 1.65561C325.187 1.22641 326.029 1.00043 326.887 1.00049C327.745 1.00054 328.588 1.22662 329.331 1.65592V1.65592Z" stroke="#593493" stroke-miterlimit="10"/>
<path d="M435.222 71.6045C425.905 71.6045 416.969 67.9033 410.381 61.3151C403.792 54.7268 400.091 45.7912 400.091 36.474V36.474C400.091 27.1667 403.789 18.2406 410.37 11.6594C416.951 5.07818 425.877 1.38088 435.184 1.38088V1.38088C444.502 1.38088 453.437 5.08213 460.025 11.6704C466.614 18.2586 470.315 27.1943 470.315 36.5115C470.315 45.8188 466.618 54.7448 460.036 61.3261C453.455 67.9073 444.529 71.6045 435.222 71.6045Z" stroke="#593493" stroke-miterlimit="10"/>
<path d="M327.341 149.405C343.221 148.142 358.13 141.257 369.388 129.987C380.646 118.717 387.515 103.8 388.76 87.9189C388.809 87.2469 388.719 86.572 388.496 85.9363C388.272 85.3007 387.92 84.7181 387.461 84.2249C387.001 83.7318 386.445 83.3387 385.827 83.0703C385.209 82.8019 384.542 82.6641 383.869 82.6653L326.929 82.6945C326.288 82.6945 325.653 82.8208 325.061 83.0662C324.468 83.3117 323.93 83.6715 323.477 84.1249C323.024 84.5784 322.665 85.1168 322.42 85.7092C322.175 86.3016 322.049 86.9365 322.05 87.5775L322.079 144.517C322.079 145.191 322.218 145.858 322.487 146.476C322.756 147.094 323.15 147.65 323.644 148.108C324.138 148.567 324.721 148.919 325.357 149.142C325.993 149.365 326.669 149.454 327.341 149.405V149.405Z" stroke="#593493" stroke-miterlimit="10"/>
<path d="M406.748 82.6571L463.704 82.6279C464.345 82.6268 464.98 82.7522 465.573 82.997C466.166 83.2417 466.704 83.601 467.158 84.0543C467.611 84.5075 467.971 85.0456 468.217 85.6381C468.462 86.2306 468.588 86.8656 468.587 87.5068L468.616 144.463C468.616 145.758 468.102 146.999 467.188 147.915C466.273 148.83 465.032 149.345 463.737 149.346L406.781 149.376C406.14 149.376 405.505 149.25 404.913 149.005C404.32 148.76 403.782 148.401 403.328 147.948C402.875 147.495 402.515 146.957 402.27 146.365C402.024 145.773 401.898 145.138 401.898 144.497L401.869 87.5402C401.868 86.8991 401.994 86.2642 402.239 85.6717C402.484 85.0793 402.843 84.541 403.296 84.0875C403.749 83.634 404.287 83.2743 404.88 83.0289C405.472 82.7834 406.106 82.6571 406.748 82.6571V82.6571Z" stroke="#593493" stroke-miterlimit="10"/>
<path d="M409.229 160.562L462.356 191.201C463.097 191.629 463.713 192.246 464.141 192.988C464.569 193.73 464.795 194.571 464.795 195.428C464.795 196.285 464.569 197.126 464.141 197.868C463.713 198.61 463.097 199.226 462.356 199.655L409.258 230.344C408.517 230.773 407.675 230.999 406.819 231C405.962 231.001 405.12 230.776 404.378 230.348C403.636 229.92 403.019 229.304 402.591 228.563C402.162 227.821 401.936 226.98 401.936 226.123L401.902 164.795C401.901 163.937 402.126 163.094 402.555 162.351C402.983 161.608 403.599 160.991 404.342 160.561C405.085 160.132 405.928 159.906 406.786 159.906C407.644 159.906 408.486 160.132 409.229 160.562V160.562Z" stroke="#593493" stroke-miterlimit="10"/>
<path d="M355.448 160.354C364.765 160.354 373.701 164.055 380.289 170.643C386.877 177.231 390.579 186.167 390.579 195.484C390.579 204.791 386.881 213.717 380.3 220.299C373.719 226.88 364.793 230.577 355.486 230.577V230.577C346.168 230.577 337.233 226.876 330.644 220.288C324.056 213.699 320.355 204.764 320.355 195.447C320.355 186.139 324.052 177.213 330.633 170.632C337.215 164.051 346.141 160.354 355.448 160.354V160.354Z" stroke="#593493" stroke-miterlimit="10"/>
<path d="M674.721 160.195H674.758C684.065 160.195 692.991 163.892 699.573 170.474C706.154 177.055 709.851 185.981 709.851 195.288C709.851 204.605 706.15 213.541 699.562 220.129C692.973 226.717 684.038 230.419 674.721 230.419V230.419C665.413 230.419 656.487 226.721 649.906 220.14C643.325 213.559 639.627 204.633 639.627 195.326V195.288C639.627 190.68 640.535 186.116 642.299 181.859C644.062 177.601 646.647 173.732 649.906 170.474C653.165 167.215 657.033 164.63 661.291 162.866C665.549 161.103 670.112 160.195 674.721 160.195Z" stroke="#593493" stroke-miterlimit="10"/>
<path d="M543.595 228.733L486.642 228.762C486.001 228.763 485.366 228.637 484.773 228.392C484.181 228.147 483.642 227.788 483.188 227.335C482.735 226.882 482.374 226.344 482.128 225.752C481.883 225.159 481.756 224.524 481.755 223.883L481.726 166.927C481.726 165.632 482.24 164.391 483.155 163.475C484.07 162.56 485.311 162.045 486.605 162.044L543.562 162.014C544.203 162.014 544.838 162.14 545.43 162.385C546.023 162.629 546.562 162.989 547.016 163.442C547.469 163.895 547.83 164.433 548.075 165.025C548.321 165.617 548.448 166.252 548.449 166.893L548.478 223.85C548.478 225.145 547.963 226.387 547.048 227.303C546.132 228.218 544.89 228.733 543.595 228.733V228.733Z" stroke="#593493" stroke-miterlimit="10"/>
<path d="M249.554 81.2049L302.676 111.839C303.419 112.268 304.035 112.884 304.464 113.627C304.893 114.369 305.119 115.212 305.119 116.069C305.119 116.926 304.893 117.769 304.464 118.511C304.035 119.253 303.419 119.87 302.676 120.298L249.587 150.987C248.845 151.416 248.003 151.642 247.146 151.643C246.288 151.643 245.446 151.418 244.704 150.99C243.961 150.561 243.344 149.945 242.915 149.203C242.487 148.461 242.261 147.619 242.26 146.762L242.231 85.4343C242.231 84.5774 242.457 83.7356 242.885 82.9935C243.313 82.2514 243.93 81.6351 244.672 81.2065C245.414 80.7779 246.255 80.552 247.112 80.5518C247.969 80.5515 248.811 80.7768 249.554 81.2049Z" stroke="#593493" stroke-miterlimit="10"/>
<path d="M594.898 80.8091C604.205 80.8091 613.131 84.5064 619.712 91.0876C626.293 97.6688 629.991 106.595 629.991 115.902V115.94C629.991 125.247 626.293 134.173 619.712 140.754C613.131 147.335 604.205 151.033 594.898 151.033H594.86C585.553 151.033 576.627 147.335 570.046 140.754C563.464 134.173 559.767 125.247 559.767 115.94C559.767 106.622 563.468 97.6869 570.057 91.0986C576.645 84.5103 585.58 80.8091 594.898 80.8091Z" stroke="#593493" stroke-miterlimit="10"/>
<path d="M568.862 160.47L621.989 191.105C622.732 191.533 623.348 192.15 623.777 192.892C624.206 193.635 624.432 194.477 624.432 195.334C624.432 196.192 624.206 197.034 623.777 197.776C623.348 198.519 622.732 199.135 621.989 199.564L568.916 230.253C568.174 230.682 567.332 230.908 566.475 230.908C565.618 230.908 564.776 230.683 564.033 230.255C563.291 229.827 562.674 229.211 562.245 228.469C561.816 227.726 561.59 226.884 561.59 226.027L561.561 164.7C561.561 163.845 561.787 163.006 562.214 162.266C562.641 161.526 563.255 160.911 563.994 160.483C564.733 160.055 565.572 159.828 566.426 159.826C567.281 159.824 568.121 160.046 568.862 160.47Z" stroke="#593493" stroke-miterlimit="10"/>
<path d="M648.645 81.0003L701.767 111.639C702.51 112.067 703.127 112.683 703.556 113.425C703.985 114.167 704.21 115.009 704.21 115.867C704.21 116.724 703.985 117.566 703.556 118.308C703.127 119.05 702.51 119.666 701.767 120.094L648.674 150.783C647.932 151.211 647.09 151.438 646.234 151.438C645.377 151.439 644.535 151.214 643.792 150.786C643.05 150.358 642.433 149.743 642.004 149.001C641.575 148.26 641.348 147.418 641.347 146.562L641.318 85.234C641.317 84.3762 641.542 83.5331 641.97 82.7899C642.398 82.0466 643.015 81.4292 643.758 81C644.501 80.5708 645.343 80.3449 646.201 80.345C647.059 80.345 647.902 80.571 648.645 81.0003V81.0003Z" stroke="#593493" stroke-miterlimit="10"/>
<path d="M544.876 70.5062L486.596 70.5354C485.949 70.5365 485.308 70.4099 484.71 70.1628C484.111 69.9158 483.568 69.5531 483.11 69.0957C482.652 68.6382 482.289 68.0949 482.041 67.4969C481.794 66.8989 481.667 66.2579 481.667 65.6107L481.638 7.33033C481.639 6.35626 481.927 5.40414 482.469 4.59417C483.01 3.78421 483.779 3.15277 484.678 2.77952C485.578 2.40627 486.568 2.308 487.524 2.49708C488.479 2.68616 489.357 3.15411 490.047 3.84189L548.348 62.0847C549.039 62.7728 549.511 63.6505 549.703 64.6066C549.895 65.5628 549.799 66.5544 549.427 67.456C549.056 68.3576 548.425 69.1286 547.615 69.6716C546.805 70.2146 545.852 70.505 544.876 70.5062V70.5062Z" stroke="#593493" stroke-miterlimit="10"/>
<path d="M544.106 82.291H486.629C483.907 82.291 481.7 84.4977 481.7 87.2199V144.697C481.7 147.419 483.907 149.626 486.629 149.626H544.106C546.828 149.626 549.035 147.419 549.035 144.697V87.2199C549.035 84.4977 546.828 82.291 544.106 82.291Z" stroke="#593493" stroke-miterlimit="10"/>
<path d="M10.0711 1.65604L63.1977 32.2907C63.9403 32.7192 64.5571 33.3356 64.9859 34.078C65.4146 34.8205 65.6404 35.6628 65.6404 36.5202C65.6404 37.3775 65.4146 38.2198 64.9859 38.9622C64.5571 39.7047 63.9403 40.3211 63.1977 40.7496L10.1043 71.4384C9.36221 71.8673 8.52027 72.0934 7.6631 72.0938C6.80594 72.0942 5.96381 71.869 5.22127 71.4408C4.47874 71.0126 3.86198 70.3964 3.43304 69.6543C3.00411 68.9122 2.77812 68.0703 2.77772 67.2131L2.74855 5.88966C2.74665 5.03191 2.97097 4.18883 3.39879 3.44539C3.82662 2.70195 4.44283 2.08446 5.1854 1.65513C5.92797 1.22579 6.7706 0.99984 7.62835 1C8.4861 1.00016 9.32868 1.22643 10.0711 1.65604Z" stroke="#593493" stroke-miterlimit="10"/>
<path d="M115.962 71.6045H115.925C106.617 71.6045 97.6913 67.9073 91.1101 61.3261C84.5289 54.7448 80.8316 45.8188 80.8316 36.5115V36.5115C80.8316 27.1943 84.5328 18.2586 91.1211 11.6704C97.7093 5.08213 106.645 1.38088 115.962 1.38088V1.38088C125.269 1.38088 134.195 5.07818 140.777 11.6594C147.358 18.2406 151.055 27.1667 151.055 36.474V36.5115C151.055 45.8188 147.358 54.7448 140.777 61.3261C134.195 67.9073 125.269 71.6045 115.962 71.6045V71.6045Z" stroke="#593493" stroke-miterlimit="10"/>
<path d="M8.03929 149.405C23.9197 148.143 38.8293 141.258 50.0881 129.987C61.347 118.717 68.2167 103.801 69.4626 87.9189C69.5106 87.2472 69.4198 86.5727 69.1957 85.9377C68.9717 85.3026 68.6192 84.7205 68.1603 84.2276C67.7014 83.7347 67.1459 83.3416 66.5284 83.0728C65.9109 82.8041 65.2447 82.6653 64.5712 82.6653L7.63133 82.6945C6.99012 82.6939 6.35517 82.8199 5.76271 83.0651C5.17026 83.3104 4.63197 83.6701 4.17876 84.1237C3.72555 84.5773 3.36633 85.1159 3.12158 85.7086C2.87683 86.3012 2.75135 86.9363 2.75245 87.5775L2.78162 144.517C2.78153 145.191 2.9204 145.857 3.18947 146.475C3.45854 147.093 3.85203 147.648 4.34544 148.107C4.83885 148.565 5.42158 148.917 6.05714 149.141C6.69271 149.364 7.36743 149.454 8.03929 149.405V149.405Z" stroke="#593493" stroke-miterlimit="10"/>
<path d="M87.4504 82.6571L144.403 82.6279C145.044 82.6274 145.679 82.7531 146.272 82.998C146.865 83.2429 147.403 83.6021 147.857 84.0552C148.311 84.5082 148.671 85.0463 148.917 85.6385C149.163 86.2307 149.29 86.8656 149.29 87.5068L149.319 144.463C149.319 145.758 148.805 146.999 147.89 147.915C146.976 148.83 145.735 149.345 144.44 149.346L87.4838 149.376C86.8425 149.376 86.2074 149.25 85.6147 149.005C85.0221 148.761 84.4835 148.401 84.0297 147.948C83.5759 147.495 83.2158 146.957 82.9698 146.365C82.7239 145.773 82.5971 145.138 82.5966 144.497L82.5674 87.5402C82.5674 86.2451 83.0819 85.003 83.9977 84.0873C84.9134 83.1715 86.1554 82.6571 87.4504 82.6571V82.6571Z" stroke="#593493" stroke-miterlimit="10"/>
<path d="M89.8902 160.562L143.017 191.201C143.758 191.629 144.374 192.246 144.802 192.988C145.231 193.73 145.456 194.571 145.456 195.428C145.456 196.285 145.231 197.126 144.802 197.868C144.374 198.61 143.758 199.226 143.017 199.655L89.9194 230.344C89.1779 230.773 88.3365 230.999 87.4798 231C86.6231 231.001 85.7813 230.776 85.0391 230.348C84.2969 229.92 83.6805 229.304 83.2517 228.563C82.823 227.821 82.5971 226.98 82.5968 226.123L82.5635 164.795C82.5624 163.937 82.7874 163.094 83.2158 162.351C83.6441 161.608 84.2607 160.991 85.0035 160.561C85.7463 160.132 86.589 159.906 87.4468 159.906C88.3047 159.906 89.1475 160.132 89.8902 160.562V160.562Z" stroke="#593493" stroke-miterlimit="10"/>
<path d="M36.0931 160.354H36.1306C45.4378 160.354 54.3639 164.051 60.9451 170.632C67.5263 177.213 71.2236 186.139 71.2236 195.447C71.2236 200.06 70.315 204.628 68.5495 208.89C66.784 213.153 64.1963 217.025 60.9341 220.288C57.672 223.55 53.7992 226.138 49.537 227.903C45.2747 229.668 40.7065 230.577 36.0931 230.577V230.577C26.7858 230.577 17.8598 226.88 11.2785 220.299C4.6973 213.717 1 204.791 1 195.484V195.447C1 186.139 4.6973 177.213 11.2785 170.632C17.8598 164.051 26.7858 160.354 36.0931 160.354V160.354Z" stroke="#593493" stroke-miterlimit="10"/>
<path d="M224.23 228.733L167.274 228.762C166.632 228.763 165.998 228.637 165.405 228.392C164.813 228.147 164.274 227.788 163.821 227.335C163.367 226.881 163.008 226.343 162.762 225.751C162.517 225.159 162.391 224.524 162.391 223.883L162.361 166.927C162.36 166.285 162.486 165.65 162.73 165.058C162.975 164.465 163.334 163.926 163.788 163.473C164.241 163.019 164.779 162.659 165.372 162.414C165.964 162.169 166.599 162.043 167.24 162.044L224.197 162.014C225.491 162.014 226.733 162.528 227.648 163.443C228.564 164.358 229.079 165.599 229.08 166.893L229.109 223.85C229.11 224.491 228.984 225.126 228.739 225.718C228.494 226.311 228.135 226.849 227.681 227.302C227.228 227.756 226.69 228.116 226.098 228.361C225.506 228.607 224.871 228.733 224.23 228.733V228.733Z" stroke="#593493" stroke-miterlimit="10"/>
<path d="M224.897 70.5062L166.616 70.5354C165.969 70.5365 165.328 70.4099 164.73 70.1628C164.131 69.9158 163.588 69.5531 163.13 69.0957C162.672 68.6382 162.309 68.0949 162.061 67.4969C161.814 66.8989 161.687 66.2579 161.687 65.6107L161.658 7.33033C161.659 6.35626 161.948 5.40414 162.489 4.59417C163.03 3.78421 163.799 3.15277 164.698 2.77952C165.598 2.40627 166.588 2.308 167.544 2.49708C168.499 2.68616 169.377 3.15411 170.067 3.84189L228.393 62.0931C229.083 62.7831 229.553 63.6623 229.742 64.6193C229.932 65.5764 229.833 66.5682 229.459 67.4691C229.084 68.37 228.451 69.1396 227.639 69.6802C226.827 70.2209 225.872 70.5083 224.897 70.5062Z" stroke="#593493" stroke-miterlimit="10"/>
<path d="M224.484 82.291H167.007C164.285 82.291 162.079 84.4977 162.079 87.2199V144.697C162.079 147.419 164.285 149.626 167.007 149.626H224.484C227.206 149.626 229.413 147.419 229.413 144.697V87.2199C229.413 84.4977 227.206 82.291 224.484 82.291Z" stroke="#593493" stroke-miterlimit="10"/>
<path d="M1044.82 69.9353C1060.7 68.6741 1075.61 61.7899 1086.87 50.5202C1098.13 39.2506 1105 24.3347 1106.24 8.45379C1106.29 7.78225 1106.2 7.10802 1105.97 6.47316C1105.75 5.83831 1105.4 5.25636 1104.94 4.7638C1104.48 4.27124 1103.92 3.87858 1103.31 3.61027C1102.69 3.34196 1102.02 3.20377 1101.35 3.20435L1044.41 3.23352C1043.12 3.23572 1041.87 3.75157 1040.96 4.66786C1040.05 5.58415 1039.53 6.826 1039.53 8.12073L1039.56 65.0606C1039.56 65.7336 1039.7 66.399 1039.97 67.0154C1040.24 67.6318 1040.64 68.186 1041.13 68.6434C1041.62 69.1008 1042.21 69.4515 1042.84 69.6737C1043.48 69.896 1044.15 69.9851 1044.82 69.9353V69.9353Z" stroke="#593493" stroke-miterlimit="10"/>
<path d="M1101.48 228.854L1044.53 228.883C1043.88 228.884 1043.25 228.758 1042.66 228.513C1042.06 228.268 1041.53 227.909 1041.07 227.456C1040.62 227.003 1040.26 226.465 1040.01 225.872C1039.77 225.28 1039.64 224.645 1039.64 224.004L1039.61 167.048C1039.61 165.753 1040.12 164.512 1041.04 163.596C1041.95 162.68 1043.19 162.166 1044.49 162.164L1101.44 162.135C1102.09 162.133 1102.72 162.258 1103.32 162.502C1103.91 162.746 1104.45 163.105 1104.91 163.558C1105.36 164.011 1105.72 164.55 1105.97 165.143C1106.22 165.736 1106.34 166.372 1106.34 167.014L1106.37 223.971C1106.37 224.613 1106.25 225.249 1106 225.842C1105.75 226.436 1105.39 226.974 1104.94 227.428C1104.48 227.882 1103.94 228.241 1103.35 228.486C1102.76 228.73 1102.12 228.855 1101.48 228.854V228.854Z" stroke="#593493" stroke-miterlimit="10"/>
<path d="M1046.89 81.2049L1100.02 111.856C1100.76 112.285 1101.37 112.902 1101.8 113.645C1102.23 114.387 1102.46 115.229 1102.46 116.086C1102.46 116.942 1102.23 117.784 1101.8 118.527C1101.37 119.269 1100.76 119.886 1100.02 120.315L1046.93 150.987C1046.19 151.416 1045.34 151.642 1044.49 151.643C1043.63 151.643 1042.79 151.418 1042.05 150.99C1041.3 150.561 1040.69 149.945 1040.26 149.203C1039.83 148.461 1039.6 147.619 1039.6 146.762L1039.57 85.4343C1039.57 84.5774 1039.79 83.7356 1040.22 82.9935C1040.65 82.2514 1041.27 81.6351 1042.01 81.2065C1042.75 80.7779 1043.59 80.552 1044.45 80.5518C1045.31 80.5515 1046.15 80.7768 1046.89 81.2049V81.2049Z" stroke="#593493" stroke-miterlimit="10"/>
<path d="M807.413 1.65554L860.535 32.2902C861.278 32.7187 861.894 33.3351 862.323 34.0775C862.752 34.82 862.978 35.6623 862.978 36.5197C862.978 37.377 862.752 38.2193 862.323 38.9617C861.894 39.7042 861.278 40.3206 860.535 40.7491L807.45 71.4379C806.708 71.8671 805.866 72.0934 805.009 72.0939C804.152 72.0944 803.31 71.8693 802.568 71.4409C801.826 71.0126 801.209 70.3962 800.781 69.6539C800.352 68.9116 800.127 68.0696 800.128 67.2126L800.094 5.88916C800.094 5.03251 800.319 4.19086 800.747 3.44875C801.175 2.70664 801.791 2.09019 802.532 1.66123C803.274 1.23227 804.115 1.00589 804.972 1.00489C805.828 1.00389 806.67 1.22831 807.413 1.65554V1.65554Z" stroke="#593493" stroke-miterlimit="10"/>
<path d="M913.3 71.6045H913.263C903.955 71.6045 895.029 67.9073 888.448 61.3261C881.867 54.7448 878.169 45.8188 878.169 36.5115C878.169 27.1943 881.871 18.2586 888.459 11.6704C895.047 5.08213 903.983 1.38088 913.3 1.38088C922.607 1.38088 931.533 5.07818 938.115 11.6594C944.696 18.2406 948.393 27.1667 948.393 36.474V36.5115C948.393 45.8188 944.696 54.7448 938.115 61.3261C931.533 67.9073 922.607 71.6045 913.3 71.6045V71.6045Z" stroke="#593493" stroke-miterlimit="10"/>
<path d="M805.368 149.405C821.248 148.142 836.157 141.257 847.416 129.987C858.674 118.717 865.543 103.8 866.788 87.9189C866.837 87.2469 866.747 86.572 866.523 85.9363C866.3 85.3007 865.947 84.7181 865.488 84.2249C865.029 83.7318 864.473 83.3387 863.855 83.0703C863.237 82.8019 862.57 82.6641 861.896 82.6653L804.952 82.7153C803.658 82.7164 802.417 83.2314 801.502 84.147C800.587 85.0626 800.073 86.304 800.073 87.5983L800.102 144.538C800.105 145.211 800.246 145.876 800.517 146.492C800.788 147.107 801.183 147.661 801.677 148.117C802.171 148.574 802.753 148.924 803.389 149.145C804.024 149.367 804.698 149.455 805.368 149.405V149.405Z" stroke="#593493" stroke-miterlimit="10"/>
<path d="M884.788 82.6571L941.745 82.6279C942.386 82.6268 943.021 82.7522 943.614 82.997C944.206 83.2417 944.745 83.601 945.198 84.0543C945.652 84.5075 946.012 85.0456 946.257 85.6381C946.502 86.2306 946.628 86.8656 946.628 87.5068L946.657 144.463C946.657 145.758 946.143 146.999 945.228 147.915C944.313 148.83 943.072 149.345 941.778 149.346L884.821 149.376C884.18 149.376 883.545 149.25 882.953 149.005C882.361 148.76 881.822 148.401 881.369 147.948C880.915 147.495 880.556 146.957 880.31 146.365C880.065 145.773 879.938 145.138 879.938 144.497L879.909 87.5402C879.909 86.8991 880.034 86.2642 880.279 85.6717C880.524 85.0793 880.884 84.541 881.337 84.0875C881.79 83.634 882.328 83.2743 882.92 83.0289C883.512 82.7834 884.147 82.6571 884.788 82.6571V82.6571Z" stroke="#593493" stroke-miterlimit="10"/>
<path d="M887.228 160.562L940.354 191.201C941.097 191.629 941.714 192.245 942.143 192.987C942.572 193.729 942.798 194.571 942.798 195.428C942.798 196.285 942.572 197.127 942.143 197.869C941.714 198.611 941.097 199.227 940.354 199.655L887.261 230.344C886.519 230.773 885.678 230.999 884.821 231C883.964 231 883.122 230.775 882.38 230.348C881.637 229.92 881.021 229.304 880.591 228.563C880.162 227.821 879.936 226.98 879.934 226.123L879.905 164.795C879.903 163.938 880.128 163.095 880.555 162.351C880.983 161.608 881.6 160.99 882.342 160.561C883.085 160.132 883.927 159.906 884.785 159.906C885.643 159.906 886.485 160.132 887.228 160.562V160.562Z" stroke="#593493" stroke-miterlimit="10"/>
<path d="M833.435 160.354C842.753 160.354 851.688 164.055 858.276 170.643C864.865 177.231 868.566 186.167 868.566 195.484C868.566 204.791 864.869 213.717 858.287 220.299C851.706 226.88 842.78 230.577 833.473 230.577V230.577C828.859 230.577 824.291 229.668 820.029 227.903C815.767 226.138 811.894 223.55 808.632 220.288C805.37 217.025 802.782 213.153 801.016 208.89C799.251 204.628 798.342 200.06 798.342 195.447V195.447C798.342 186.139 802.04 177.213 808.621 170.632C815.202 164.051 824.128 160.354 833.435 160.354V160.354Z" stroke="#593493" stroke-miterlimit="10"/>
<path d="M1021.58 228.733L964.624 228.762C963.329 228.762 962.088 228.248 961.172 227.333C960.257 226.418 959.742 225.178 959.741 223.883L959.711 166.927C959.711 165.632 960.225 164.391 961.14 163.475C962.055 162.56 963.296 162.045 964.59 162.044L1021.55 162.014C1022.19 162.014 1022.82 162.14 1023.42 162.385C1024.01 162.629 1024.55 162.989 1025 163.442C1025.45 163.895 1025.81 164.433 1026.06 165.025C1026.31 165.617 1026.43 166.252 1026.43 166.893L1026.46 223.85C1026.46 224.491 1026.33 225.126 1026.09 225.719C1025.85 226.312 1025.49 226.85 1025.03 227.304C1024.58 227.757 1024.04 228.117 1023.45 228.362C1022.86 228.608 1022.22 228.733 1021.58 228.733V228.733Z" stroke="#593493" stroke-miterlimit="10"/>
<path d="M1022.25 70.5062L963.975 70.5354C963.328 70.5359 962.687 70.4089 962.089 70.1617C961.491 69.9144 960.947 69.5518 960.49 69.0944C960.032 68.6371 959.669 68.094 959.421 67.4963C959.173 66.8985 959.046 66.2577 959.046 65.6107L959.017 7.33033C959.017 6.35626 959.306 5.40414 959.847 4.59417C960.388 3.78421 961.157 3.15277 962.057 2.77952C962.957 2.40627 963.947 2.308 964.902 2.49708C965.858 2.68616 966.736 3.15411 967.426 3.84189L1025.71 62.0847C1026.4 62.7716 1026.87 63.6474 1027.06 64.6016C1027.25 65.5557 1027.16 66.5457 1026.79 67.4465C1026.42 68.3472 1025.79 69.1185 1024.99 69.6631C1024.18 70.2076 1023.23 70.501 1022.25 70.5062V70.5062Z" stroke="#593493" stroke-miterlimit="10"/>
<path d="M1021.83 82.291H964.348C961.626 82.291 959.419 84.4977 959.419 87.2199V144.697C959.419 147.419 961.626 149.626 964.348 149.626H1021.83C1024.55 149.626 1026.75 147.419 1026.75 144.697V87.2199C1026.75 84.4977 1024.55 82.291 1021.83 82.291Z" stroke="#593493" stroke-miterlimit="10"/>
</svg>
